<svg xmlns="http://www.w3.org/2000/svg" viewBox="0 0 1200 600" width="1200" height="600" role="img" aria-label="Elmaali Tours Egypt - 101,000+ direct conversations">
  <defs>
    <linearGradient id="bg" x1="0" y1="0" x2="1" y2="1">
      <stop offset="0" stop-color="#0C1526"/>
      <stop offset="0.55" stop-color="#080D1A"/>
      <stop offset="1" stop-color="#05080F"/>
    </linearGradient>
    <radialGradient id="glow" cx="0.8" cy="0.2" r="0.72">
      <stop offset="0" stop-color="#D4AF37" stop-opacity="0.3"/>
      <stop offset="1" stop-color="#D4AF37" stop-opacity="0"/>
    </radialGradient>
    <linearGradient id="kpi" x1="0" y1="0" x2="1" y2="0">
      <stop offset="0" stop-color="#E8C767"/>
      <stop offset="1" stop-color="#A07D10"/>
    </linearGradient>
    <pattern id="grid" width="50" height="50" patternUnits="userSpaceOnUse">
      <path d="M50 0H0v50" fill="none" stroke="#ffffff" stroke-opacity="0.04"/>
    </pattern>
  </defs>
  <rect width="1200" height="600" fill="url(#bg)"/>
  <rect width="1200" height="600" fill="url(#grid)"/>
  <rect width="1200" height="600" fill="url(#glow)"/>
  <g transform="translate(960 240)">
    <circle r="150" fill="none" stroke="#D4AF37" stroke-opacity="0.16" stroke-width="2"/>
    <circle r="112" fill="#D4AF37" fill-opacity="0.05" stroke="#D4AF37" stroke-opacity="0.22" stroke-width="2"/>
    <g transform="translate(-102 -102) scale(8.5)" fill="none" stroke="#D4AF37" stroke-opacity="0.5" stroke-width="0.7" stroke-linecap="round" stroke-linejoin="round">
      <path d="M22 2 11 13"/>
      <path d="M22 2l-7 20-4-9-9-4z"/>
    </g>
  </g>
  <g fill="#D4AF37" fill-opacity="0.13">
    <rect x="880" y="496" width="28" height="44" rx="8"/>
    <rect x="926" y="470" width="28" height="70" rx="8"/>
    <rect x="972" y="482" width="28" height="58" rx="8"/>
    <rect x="1018" y="444" width="28" height="96" rx="8"/>
    <rect x="1064" y="416" width="28" height="124" rx="8"/>
  </g>
  <text x="64" y="100" font-family="Arial, Helvetica, sans-serif" font-size="32" font-weight="700" letter-spacing="7" fill="#8B95A8">TRAVEL &amp; TOURISM</text>
  <text x="64" y="186" font-family="Georgia, serif" font-size="66" font-weight="700" fill="#F5F7FB">ELMAALI TOURS</text>
  <text x="64" y="240" font-family="Arial, Helvetica, sans-serif" font-size="32" letter-spacing="2" fill="#C3CBD9" fill-opacity="0.75">Egypt &#183; Meta Ads</text>
  <rect x="64" y="296" width="190" height="3" rx="1.5" fill="url(#kpi)"/>
  <text x="64" y="402" font-family="Arial, Helvetica, sans-serif" font-size="84" font-weight="700" fill="url(#kpi)">101,000+</text>
  <text x="64" y="452" font-family="Arial, Helvetica, sans-serif" font-size="32" letter-spacing="3" fill="#C3CBD9" fill-opacity="0.8">DIRECT CONVERSATIONS &#183; 32 MONTHS</text>
  <rect y="597" width="1200" height="3" fill="url(#kpi)" opacity="0.5"/>
</svg>
