<svg xmlns="http://www.w3.org/2000/svg" viewBox="0 0 1200 600" width="1200" height="600" role="img" aria-label="Nogget Tours Egypt - about 25 percent engagement growth">
  <defs>
    <linearGradient id="bg" x1="0" y1="0" x2="1" y2="1">
      <stop offset="0" stop-color="#0C1526"/>
      <stop offset="0.55" stop-color="#080D1A"/>
      <stop offset="1" stop-color="#05080F"/>
    </linearGradient>
    <radialGradient id="glow" cx="0.8" cy="0.2" r="0.72">
      <stop offset="0" stop-color="#D4AF37" stop-opacity="0.3"/>
      <stop offset="1" stop-color="#D4AF37" stop-opacity="0"/>
    </radialGradient>
    <linearGradient id="kpi" x1="0" y1="0" x2="1" y2="0">
      <stop offset="0" stop-color="#E8C767"/>
      <stop offset="1" stop-color="#A07D10"/>
    </linearGradient>
    <pattern id="grid" width="50" height="50" patternUnits="userSpaceOnUse">
      <path d="M50 0H0v50" fill="none" stroke="#ffffff" stroke-opacity="0.04"/>
    </pattern>
  </defs>
  <rect width="1200" height="600" fill="url(#bg)"/>
  <rect width="1200" height="600" fill="url(#grid)"/>
  <rect width="1200" height="600" fill="url(#glow)"/>
  <g transform="translate(960 240)">
    <circle r="150" fill="none" stroke="#D4AF37" stroke-opacity="0.16" stroke-width="2"/>
    <circle r="112" fill="#D4AF37" fill-opacity="0.05" stroke="#D4AF37" stroke-opacity="0.22" stroke-width="2"/>
    <g transform="translate(-102 -102) scale(8.5)" fill="none" stroke="#D4AF37" stroke-opacity="0.5" stroke-width="0.7" stroke-linecap="round" stroke-linejoin="round">
      <circle cx="12" cy="12" r="9.2"/>
      <path d="M2.8 12h18.4"/>
      <path d="M12 2.8c2.3 2.5 3.6 5.8 3.6 9.2S14.3 18.7 12 21.2C9.7 18.7 8.4 15.4 8.4 12S9.7 5.3 12 2.8z"/>
    </g>
  </g>
  <g fill="#D4AF37" fill-opacity="0.13">
    <rect x="880" y="508" width="28" height="32" rx="8"/>
    <rect x="926" y="486" width="28" height="54" rx="8"/>
    <rect x="972" y="466" width="28" height="74" rx="8"/>
    <rect x="1018" y="446" width="28" height="94" rx="8"/>
    <rect x="1064" y="414" width="28" height="126" rx="8"/>
  </g>
  <text x="64" y="100" font-family="Arial, Helvetica, sans-serif" font-size="32" font-weight="700" letter-spacing="7" fill="#8B95A8">TOURISM</text>
  <text x="64" y="186" font-family="Georgia, serif" font-size="66" font-weight="700" fill="#F5F7FB">NOGGET TOURS</text>
  <text x="64" y="240" font-family="Arial, Helvetica, sans-serif" font-size="32" letter-spacing="2" fill="#C3CBD9" fill-opacity="0.75">Egypt &#183; Social Growth</text>
  <rect x="64" y="296" width="190" height="3" rx="1.5" fill="url(#kpi)"/>
  <text x="64" y="402" font-family="Arial, Helvetica, sans-serif" font-size="84" font-weight="700" fill="url(#kpi)">+25%</text>
  <text x="64" y="452" font-family="Arial, Helvetica, sans-serif" font-size="32" letter-spacing="3" fill="#C3CBD9" fill-opacity="0.8">ENGAGEMENT GROWTH &#183; +15% ROI</text>
  <rect y="597" width="1200" height="3" fill="url(#kpi)" opacity="0.5"/>
</svg>
